<?xml version="1.0" encoding="UTF-8"?>
<svg id="Camada_1" data-name="Camada 1" xmlns="http://www.w3.org/2000/svg" viewBox="0 0 66.08 79.13">
  <defs>
    <style>
      .cls-1 {
        fill: #056db0;
      }

      .cls-1, .cls-2 {
        fill-rule: evenodd;
        stroke-width: 0px;
      }

      .cls-2 {
        fill: #98c23a;
      }
    </style>
  </defs>
  <path class="cls-1" d="M13.92,24.39c1.25,0,2.29.05,3.13.16.83.1,1.56.33,2.19.66.63.34,1.23.81,1.8,1.41.57.6,1.23,1.39,1.96,2.39l29.09,38.16c.21.37.55.55,1.02.55h.7c.42,0,.63-.26.63-.78V26.11c0-1.15.57-1.72,1.72-1.72h8.21c1.15,0,1.72.57,1.72,1.72v44.89c0,3.18-.57,5.33-1.72,6.45-1.15,1.12-2.92,1.68-5.32,1.68h-6.73c-1.2,0-2.2-.05-3.01-.16-.81-.1-1.53-.31-2.15-.63-.63-.31-1.24-.77-1.84-1.37-.6-.6-1.29-1.42-2.07-2.46L14.08,36.36c-.31-.36-.65-.55-1.02-.55h-.7c-.42,0-.63.26-.63.78v40.82c0,1.15-.57,1.72-1.72,1.72H1.8c-1.2,0-1.8-.57-1.8-1.72v-44.89c0-3.18.57-5.33,1.72-6.45s2.92-1.68,5.32-1.68h6.88Z"/>
  <g>
    <path class="cls-2" d="M23.2,0c1.59,0,2.38.65,2.38,1.95v10.27c0,1.3-.79,1.95-2.38,1.95h-10.59c-1.59,0-2.38-.65-2.38-1.95V1.95c0-1.3.79-1.95,2.38-1.95h10.59Z"/>
    <path class="cls-2" d="M53.36,0c1.66,0,2.49.65,2.49,1.95v10.27c0,1.3-.83,1.95-2.49,1.95h-10.59c-1.59,0-2.38-.65-2.38-1.95V1.95c0-1.3.79-1.95,2.38-1.95h10.59Z"/>
  </g>
</svg>