<?xml version="1.0" encoding="UTF-8"?>
<svg id="Camada_1" data-name="Camada 1" xmlns="http://www.w3.org/2000/svg" viewBox="0 0 154.82 70.65">
  <defs>
    <style>
      .cls-1, .cls-2 {
        fill: #056db0;
      }

      .cls-1, .cls-2, .cls-3 {
        stroke-width: 0px;
      }

      .cls-1, .cls-3 {
        fill-rule: evenodd;
      }

      .cls-3 {
        fill: #98c23a;
      }
    </style>
  </defs>
  <path class="cls-1" d="M12.43,21.78c1.12,0,2.05.05,2.79.14.74.09,1.4.29,1.95.59.56.3,1.09.72,1.61,1.26.51.54,1.09,1.25,1.75,2.13l25.97,34.07c.19.33.49.49.91.49h.63c.37,0,.56-.23.56-.7V23.31c0-1.02.51-1.54,1.54-1.54h7.33c1.02,0,1.54.51,1.54,1.54v40.08c0,2.84-.51,4.76-1.54,5.76-1.02,1-2.61,1.5-4.75,1.5h-6c-1.07,0-1.97-.05-2.69-.14-.72-.09-1.36-.28-1.92-.56-.56-.28-1.11-.69-1.64-1.22-.54-.54-1.15-1.27-1.85-2.2L12.57,32.46c-.28-.33-.58-.49-.91-.49h-.63c-.37,0-.56.23-.56.7v36.45c0,1.02-.51,1.54-1.54,1.54H1.61c-1.07,0-1.61-.51-1.61-1.54V29.04c0-2.84.51-4.76,1.54-5.76s2.61-1.5,4.75-1.5h6.14Z"/>
  <g>
    <path class="cls-3" d="M20.72,0c1.42,0,2.12.58,2.12,1.74v9.17c0,1.16-.71,1.74-2.12,1.74h-9.46c-1.42,0-2.12-.58-2.12-1.74V1.74c0-1.16.71-1.74,2.12-1.74h9.46Z"/>
    <path class="cls-3" d="M47.64,0c1.48,0,2.22.58,2.22,1.74v9.17c0,1.16-.74,1.74-2.22,1.74h-9.46c-1.42,0-2.12-.58-2.12-1.74V1.74c0-1.16.71-1.74,2.12-1.74h9.46Z"/>
  </g>
  <g>
    <path class="cls-2" d="M65.5,45.26h10.97v3.38h-10.97v-3.38Z"/>
    <path class="cls-2" d="M103.29,27.89v30.25h-3.75v-3.42c-1.75,2.45-4.53,3.67-7.71,3.67-6.32,0-10.93-4.44-10.93-11.05s4.61-11.01,10.93-11.01c3.06,0,5.75,1.14,7.54,3.47v-11.91h3.91ZM99.42,47.34c0-4.61-3.14-7.58-7.26-7.58s-7.3,2.98-7.3,7.58,3.14,7.62,7.3,7.62,7.26-3.02,7.26-7.62Z"/>
    <path class="cls-2" d="M108.71,47.34c0-6.44,4.77-11.01,11.25-11.01s11.21,4.57,11.21,11.01-4.73,11.05-11.21,11.05-11.25-4.61-11.25-11.05ZM127.22,47.34c0-4.61-3.1-7.58-7.26-7.58s-7.3,2.98-7.3,7.58,3.14,7.62,7.3,7.62,7.26-3.02,7.26-7.62Z"/>
    <path class="cls-2" d="M134.6,47.34c0-6.44,4.77-11.01,11.42-11.01,3.87,0,7.09,1.59,8.81,4.61l-2.98,1.92c-1.39-2.12-3.51-3.1-5.87-3.1-4.24,0-7.42,2.98-7.42,7.58s3.18,7.62,7.42,7.62c2.36,0,4.48-.98,5.87-3.1l2.98,1.88c-1.71,3.02-4.93,4.65-8.81,4.65-6.65,0-11.42-4.61-11.42-11.05Z"/>
  </g>
</svg>